# xmcd
# 
# Track frame offsets:
#     225
#     15900
#     33600
#     52350
#     66750
#     84525
#     105600
#     119475
#     137175
#     153525
#     169800
#     184425
#     203325
#     216150
# 
# Disc length: 3172
# 
# Revision: 2
# Processed by: cddbd v1.5.2PL0 Copyright (c) Steve Scherf et al.
# Submitted via: fre:ac v1.0.31
# 
DISCID=cc0c610e
DTITLE=Yehoram Gaon - With and Without You
DYEAR=1986
DGENRE=World Music
TTITLE0=With and Without You
TTITLE1=Where are you my love?
TTITLE2=I remember you
TTITLE3=Don't fool love
TTITLE4=Goodnight to Love
TTITLE5=Song to you
TTITLE6=What your eys are saying
TTITLE7=Autumn Letter
TTITLE8=Night of Blossoms
TTITLE9=Two Roses
TTITLE10=Bright Night
TTITLE11=Vintage Melody
TTITLE12=On the wings of the melody
TTITLE13=Save the melody for me
EXTD=YEAR: 1986
EXTT0=
EXTT1=
EXTT2=
EXTT3=
EXTT4=
EXTT5=
EXTT6=
EXTT7=
EXTT8=
EXTT9=
EXTT10=
EXTT11=
EXTT12=
EXTT13=
PLAYORDER=
